<?xml version="1.0" standalone="no"?><svg xmlns="http://www.w3.org/2000/svg" viewBox="0 0 1440 320"><path fill="#2f2f2f" fill-opacity="1" d="M0,128L0,128L36.9,128L36.9,96L73.8,96L73.8,320L110.8,320L110.8,64L147.7,64L147.7,256L184.6,256L184.6,192L221.5,192L221.5,64L258.5,64L258.5,96L295.4,96L295.4,32L332.3,32L332.3,224L369.2,224L369.2,64L406.2,64L406.2,64L443.1,64L443.1,160L480,160L480,256L516.9,256L516.9,192L553.8,192L553.8,32L590.8,32L590.8,192L627.7,192L627.7,192L664.6,192L664.6,128L701.5,128L701.5,96L738.5,96L738.5,160L775.4,160L775.4,288L812.3,288L812.3,192L849.2,192L849.2,128L886.2,128L886.2,32L923.1,32L923.1,128L960,128L960,32L996.9,32L996.9,224L1033.8,224L1033.8,192L1070.8,192L1070.8,192L1107.7,192L1107.7,96L1144.6,96L1144.6,128L1181.5,128L1181.5,0L1218.5,0L1218.5,32L1255.4,32L1255.4,128L1292.3,128L1292.3,192L1329.2,192L1329.2,288L1366.2,288L1366.2,160L1403.1,160L1403.1,64L1440,64L1440,320L1403.1,320L1403.1,320L1366.2,320L1366.2,320L1329.2,320L1329.2,320L1292.3,320L1292.3,320L1255.4,320L1255.4,320L1218.5,320L1218.5,320L1181.5,320L1181.5,320L1144.6,320L1144.6,320L1107.7,320L1107.7,320L1070.8,320L1070.8,320L1033.8,320L1033.8,320L996.9,320L996.9,320L960,320L960,320L923.1,320L923.1,320L886.2,320L886.2,320L849.2,320L849.2,320L812.3,320L812.3,320L775.4,320L775.4,320L738.5,320L738.5,320L701.5,320L701.5,320L664.6,320L664.6,320L627.7,320L627.7,320L590.8,320L590.8,320L553.8,320L553.8,320L516.9,320L516.9,320L480,320L480,320L443.1,320L443.1,320L406.2,320L406.2,320L369.2,320L369.2,320L332.3,320L332.3,320L295.4,320L295.4,320L258.5,320L258.5,320L221.5,320L221.5,320L184.6,320L184.6,320L147.7,320L147.7,320L110.8,320L110.8,320L73.8,320L73.8,320L36.9,320L36.9,320L0,320L0,320Z"></path></svg>